<?xml version="1.0" encoding="UTF-8" standalone="no"?>
<!-- Generator: Adobe Illustrator 13.0.2, SVG Export Plug-In . SVG Version: 6.00 Build 14948)  -->

<svg
   xmlns:dc="http://purl.org/dc/elements/1.1/"
   xmlns:cc="http://creativecommons.org/ns#"
   xmlns:rdf="http://www.w3.org/1999/02/22-rdf-syntax-ns#"
   xmlns:svg="http://www.w3.org/2000/svg"
   xmlns="http://www.w3.org/2000/svg"
   xmlns:sodipodi="http://sodipodi.sourceforge.net/DTD/sodipodi-0.dtd"
   xmlns:inkscape="http://www.inkscape.org/namespaces/inkscape"
   version="1.1"
   id="Layer_1"
   x="0px"
   y="0px"
   width="1512.9309"
   height="1665.9772"
   viewBox="0 0 1512.9309 1665.977"
   enable-background="new 0 0 1412.886 2227.62"
   xml:space="preserve"
   inkscape:version="0.91 r13725"
   sodipodi:docname="Plano_Antiguo_Estadio_Rommel_Fernandez.svg"><metadata
     id="metadata175"><rdf:RDF><cc:Work
         rdf:about=""><dc:format>image/svg+xml</dc:format><dc:type
           rdf:resource="http://purl.org/dc/dcmitype/StillImage" /><dc:title></dc:title></cc:Work></rdf:RDF></metadata><defs
     id="defs173" /><sodipodi:namedview
     pagecolor="#ffffff"
     bordercolor="#666666"
     borderopacity="1"
     objecttolerance="10"
     gridtolerance="10"
     guidetolerance="10"
     inkscape:pageopacity="0"
     inkscape:pageshadow="2"
     inkscape:window-width="1920"
     inkscape:window-height="1028"
     id="namedview171"
     showgrid="false"
     fit-margin-left="50"
     fit-margin-right="50"
     fit-margin-top="60"
     fit-margin-bottom="60"
     inkscape:zoom="0.21459759"
     inkscape:cx="624.34241"
     inkscape:cy="538.12619"
     inkscape:window-x="-8"
     inkscape:window-y="-8"
     inkscape:window-maximized="1"
     inkscape:current-layer="Layer_1" /><g
     id="g5"
     transform="translate(49.999879,60.029494)"><g
       id="g7"><path
         d="m 494.4,85.85 -0.285,7.508 28.443,-17.496 -28.158,9.988 z m 908.889,709.868 c -1.102,-161.65 9.461,-350.33 -26,-470 C 1318.965,128.903 1193.232,47.072 1193.232,47.072 l -69.789,99.792 C 1019.462,58.741 889.426,8.831 741.289,13.718 658.04,16.465 572.574,49.046 493.695,104.45 l 0.421,-11.092 -66.411,40.85 -83.567,-88.782 c 0,0 -114.246,127.058 -195.21,334.571 L 12.51,354.473 l -2.753,816.564 129.644,-9.236 c 42.531,113.176 107.093,230.823 200.268,350.867 l 104.231,-96.348 0.208,-5.489 c 102.911,81.235 226.33,126.46 357.18,122.888 110.891,-3.027 213.379,-40.723 300.702,-104.903 l 71.489,96.418 c 66.879,-77.516 129.773,-147.388 162.289,-222.314 76.22,-175.636 68.589,-350.236 67.521,-507.202 z"
         id="path9"
         inkscape:connector-curvature="0"
         style="fill:#bbb3a6" /></g></g><polygon
     points="212.289,398.718 10.812,353.407 8.058,1169.97 207.289,1153.718 "
     id="polygon11"
     style="fill:none;stroke:#221f1f"
     transform="translate(49.999879,60.029494)" /><line
     x1="61.48188"
     y1="1184.0654"
     x2="248.68088"
     y2="1169.2474"
     id="line13"
     style="fill:none;stroke:#231f20" /><line
     x1="59.719879"
     y1="1107.5895"
     x2="247.19489"
     y2="1104.7684"
     id="line15"
     style="fill:none;stroke:#231f20" /><line
     x1="59.352882"
     y1="1026.5804"
     x2="248.39688"
     y2="1026.7234"
     id="line17"
     style="fill:none;stroke:#231f20" /><line
     x1="59.020882"
     y1="947.07147"
     x2="251.06387"
     y2="947.14648"
     id="line19"
     style="fill:none;stroke:#231f20" /><line
     x1="58.756882"
     y1="870.56049"
     x2="249.23187"
     y2="867.67047"
     id="line21"
     style="fill:none;stroke:#231f20" /><line
     x1="59.820877"
     y1="786.51849"
     x2="251.79489"
     y2="783.59351"
     id="line23"
     style="fill:none;stroke:#231f20" /><line
     x1="59.59288"
     y1="711.50647"
     x2="252.99689"
     y2="705.5495"
     id="line25"
     style="fill:none;stroke:#231f20" /><line
     x1="59.294876"
     y1="633.49646"
     x2="257.30087"
     y2="631.93347"
     id="line27"
     style="fill:none;stroke:#231f20" /><line
     x1="61.92688"
     y1="552.41949"
     x2="252.43588"
     y2="551.0285"
     id="line29"
     style="fill:none;stroke:#231f20" /><line
     x1="63.024879"
     y1="469.8765"
     x2="254.05289"
     y2="490.97852"
     id="line31"
     style="fill:none;stroke:#231f20" /><line
     x1="363.48987"
     y1="1543.5535"
     x2="469.46689"
     y2="1454.0784"
     id="line33"
     style="fill:none;stroke:#231f20" /><line
     x1="322.27087"
     y1="1481.2405"
     x2="426.58289"
     y2="1406.8164"
     id="line35"
     style="fill:none;stroke:#231f20" /><line
     x1="286.89688"
     y1="1422.0394"
     x2="395.20889"
     y2="1347.5244"
     id="line37"
     style="fill:none;stroke:#231f20" /><line
     x1="253.38388"
     y1="1356.7954"
     x2="431.44687"
     y2="1270.6685"
     id="line39"
     style="fill:none;stroke:#231f20" /><line
     x1="213.50488"
     y1="1275.6914"
     x2="418.48187"
     y2="1228.9564"
     id="line41"
     style="fill:none;stroke:#231f20" /><line
     x1="411.42389"
     y1="1183.1064"
     x2="245.37689"
     y2="1182.9324"
     id="line43"
     style="fill:none;stroke:#231f20" /><line
     x1="247.8089"
     y1="1114.8584"
     x2="411.71887"
     y2="1109.0804"
     id="line45"
     style="fill:none;stroke:#231f20" /><line
     x1="248.05688"
     y1="1038.8324"
     x2="396.01788"
     y2="1035.4225"
     id="line47"
     style="fill:none;stroke:#231f20" /><line
     x1="246.25989"
     y1="960.85345"
     x2="390.22186"
     y2="957.53448"
     id="line49"
     style="fill:none;stroke:#231f20" /><line
     x1="250.5069"
     y1="884.73547"
     x2="390.46988"
     y2="881.50946"
     id="line51"
     style="fill:none;stroke:#231f20" /><line
     x1="250.75488"
     y1="808.70947"
     x2="388.71786"
     y2="805.52948"
     id="line53"
     style="fill:none;stroke:#231f20" /><line
     x1="250.8649"
     y1="726.68549"
     x2="384.82986"
     y2="723.59747"
     id="line55"
     style="fill:none;stroke:#231f20" /><line
     x1="254.41388"
     y1="569.6875"
     x2="398.26987"
     y2="576.12347"
     id="line57"
     style="fill:none;stroke:#231f20" /><line
     x1="253.11288"
     y1="650.61346"
     x2="387.07687"
     y2="647.52545"
     id="line59"
     style="fill:none;stroke:#231f20" /><line
     x1="396.03287"
     y1="515.28351"
     x2="253.2869"
     y2="484.56552"
     id="line61"
     style="fill:none;stroke:#231f20" /><line
     x1="412.82986"
     y1="462.88351"
     x2="217.31387"
     y2="399.37152"
     id="line63"
     style="fill:none;stroke:#231f20" /><line
     x1="427.44287"
     y1="402.53052"
     x2="247.78488"
     y2="332.65152"
     id="line65"
     style="fill:none;stroke:#231f20" /><line
     x1="411.83389"
     y1="332.87152"
     x2="280.39389"
     y2="271.88351"
     id="line67"
     style="fill:none;stroke:#231f20" /><line
     x1="438.58188"
     y1="278.24051"
     x2="318.99988"
     y2="210.9785"
     id="line69"
     style="fill:none;stroke:#231f20" /><line
     x1="477.44989"
     y1="228.65149"
     x2="361.62088"
     y2="150.6055"
     id="line71"
     style="fill:none;stroke:#231f20" /><line
     x1="1256.5579"
     y1="1545.1055"
     x2="1145.5519"
     y2="1415.6334"
     id="line73"
     style="fill:none;stroke:#231f20" /><line
     x1="1303.2999"
     y1="1490.0154"
     x2="1176.2828"
     y2="1381.9194"
     id="line75"
     style="fill:none;stroke:#231f20" /><line
     x1="1348.4369"
     y1="1430.4624"
     x2="1204.8159"
     y2="1340.0594"
     id="line77"
     style="fill:none;stroke:#231f20" /><line
     x1="1385.7689"
     y1="1362.9474"
     x2="1231.2589"
     y2="1293.6324"
     id="line79"
     style="fill:none;stroke:#231f20" /><line
     x1="1411.1339"
     y1="1286.4874"
     x2="1252.6129"
     y2="1243.6304"
     id="line81"
     style="fill:none;stroke:#231f20" /><line
     x1="1430.5369"
     y1="1217.0254"
     x2="1266.4309"
     y2="1192.3004"
     id="line83"
     style="fill:none;stroke:#231f20" /><line
     x1="1442.1318"
     y1="1134.2394"
     x2="1281.5089"
     y2="1130.4414"
     id="line85"
     style="fill:none;stroke:#231f20" /><line
     x1="1444.5908"
     y1="1045.6635"
     x2="1293.0698"
     y2="1046.1544"
     id="line87"
     style="fill:none;stroke:#231f20" /><line
     x1="1444.2239"
     y1="964.65546"
     x2="1298.8038"
     y2="969.50647"
     id="line89"
     style="fill:none;stroke:#231f20" /><line
     x1="1442.3239"
     y1="882.18146"
     x2="1301.4369"
     y2="888.42847"
     id="line91"
     style="fill:none;stroke:#231f20" /><line
     x1="1442.0599"
     y1="805.67047"
     x2="1300.6299"
     y2="813.15448"
     id="line93"
     style="fill:none;stroke:#231f20" /><line
     x1="1444.7279"
     y1="726.09247"
     x2="1299.3429"
     y2="732.44348"
     id="line95"
     style="fill:none;stroke:#231f20" /><line
     x1="1444.4999"
     y1="651.08148"
     x2="1294.6149"
     y2="657.5365"
     id="line97"
     style="fill:none;stroke:#231f20" /><line
     x1="1444.1659"
     y1="571.57147"
     x2="1285.3198"
     y2="579.7345"
     id="line99"
     style="fill:none;stroke:#231f20" /><line
     x1="1437.6989"
     y1="486.20251"
     x2="1273.2689"
     y2="512.49652"
     id="line101"
     style="fill:none;stroke:#231f20" /><line
     x1="1420.7668"
     y1="402.57452"
     x2="1263.3019"
     y2="470.7175"
     id="line103"
     style="fill:none;stroke:#231f20" /><line
     x1="1396.5819"
     y1="329.61551"
     x2="1248.4958"
     y2="414.04651"
     id="line105"
     style="fill:none;stroke:#231f20" /><line
     x1="1363.3629"
     y1="255.36551"
     x2="1227.8259"
     y2="363.51251"
     id="line107"
     style="fill:none;stroke:#231f20" /><line
     x1="1322.9579"
     y1="194.78349"
     x2="1200.2048"
     y2="314.98349"
     id="line109"
     style="fill:none;stroke:#231f20" /><line
     x1="1281.3348"
     y1="146.42551"
     x2="1173.4799"
     y2="283.9465"
     id="line111"
     style="fill:none;stroke:#231f20" /><line
     x1="1133.8789"
     y1="255.47452"
     x2="1165.7919"
     y2="187.8735"
     id="line113"
     style="fill:none;stroke:#231f20" /><line
     x1="1150.6769"
     y1="1487.0724"
     x2="1119.0798"
     y2="1438.7494"
     id="line115"
     style="fill:none;stroke:#231f20" /><line
     x1="897.0979"
     y1="70.905502"
     x2="902.45789"
     y2="121.5325"
     id="line117"
     style="fill:none;stroke:#231f20" /><line
     x1="811.62585"
     y1="73.039497"
     x2="836.93286"
     y2="243.3465"
     id="line119"
     style="fill:none;stroke:#231f20" /><line
     x1="724.74286"
     y1="83.251488"
     x2="791.93988"
     y2="246.68051"
     id="line121"
     style="fill:none;stroke:#231f20" /><line
     x1="646.97186"
     y1="100.5585"
     x2="730.51385"
     y2="254.41449"
     id="line123"
     style="fill:none;stroke:#231f20" /><line
     x1="572.5589"
     y1="135.8925"
     x2="679.89191"
     y2="276.9505"
     id="line125"
     style="fill:none;stroke:#231f20" /><line
     x1="507.39087"
     y1="172.87151"
     x2="615.8429"
     y2="289.97751"
     id="line127"
     style="fill:none;stroke:#231f20" /><line
     x1="464.39587"
     y1="218.2925"
     x2="596.76288"
     y2="331.0145"
     id="line129"
     style="fill:none;stroke:#231f20" /><line
     x1="1123.0819"
     y1="157.25349"
     x2="1016.8239"
     y2="302.66351"
     id="line131"
     style="fill:none;stroke:#231f20" /><line
     x1="1041.3649"
     y1="114.3745"
     x2="957.41687"
     y2="267.68149"
     id="line133"
     style="fill:none;stroke:#231f20" /><line
     x1="964.8689"
     y1="85.875488"
     x2="918.91888"
     y2="247.91251"
     id="line135"
     style="fill:none;stroke:#231f20" /><line
     x1="531.38989"
     y1="1491.3054"
     x2="619.61389"
     y2="1366.3264"
     id="line137"
     style="fill:none;stroke:#231f20" /><line
     x1="592.8869"
     y1="1525.8044"
     x2="660.06085"
     y2="1387.4235"
     id="line139"
     style="fill:none;stroke:#231f20" /><line
     x1="661.88385"
     y1="1557.3024"
     x2="707.8219"
     y2="1404.3184"
     id="line141"
     style="fill:none;stroke:#231f20" /><line
     x1="735.37988"
     y1="1576.8014"
     x2="759.46185"
     y2="1418.0234"
     id="line143"
     style="fill:none;stroke:#231f20" /><line
     x1="812.32489"
     y1="1590.1034"
     x2="813.26086"
     y2="1425.8925"
     id="line145"
     style="fill:none;stroke:#231f20" /><line
     x1="866.41687"
     y1="1426.1415"
     x2="886.87286"
     y2="1582.8014"
     id="line147"
     style="fill:none;stroke:#231f20" /><line
     x1="963.78888"
     y1="1568.5474"
     x2="930.07788"
     y2="1424.9144"
     id="line149"
     style="fill:none;stroke:#231f20" /><line
     x1="1033.8649"
     y1="1546.8024"
     x2="953.26288"
     y2="1414.1094"
     id="line151"
     style="fill:none;stroke:#231f20" /><line
     x1="1101.9169"
     y1="1510.1594"
     x2="1011.2689"
     y2="1387.8564"
     id="line153"
     style="fill:none;stroke:#231f20" /><path
     d="m 1204.8569,312.3655 c 77.779,124.37 87.729,322.027 92.773,506.79 5.477,200.6121 -0.028,403.8811 -82.476,535.4631 -78.879,125.885 -228.417,199.76 -351.86602,203.129 -108.277,2.957 -199.557,-20.465 -311,-104 -9.61,-7.203 -32.302,34.563 -49,34 -16.699,-0.561 -33,-34 -57,-66 -7.188,-9.584 -44,-62 -52.233,-80.152 -9.913,-21.855 46.502,-32.064 43.99,-38.725 -7.275,-19.273 -12.411,-29.881 -17.757,-51.123 -2.976,-11.82 -13.722,-39.824 -16,-52 -20.264,-108.316 -26.359,-224.6071 -30,-358.0001 -3.734,-136.776 3.825,-245.526 34,-358 8.755,-32.632 15.154,-93.862 29.789,-122.229 3.465,-6.716 -37.042,-8.683 -33.287,-15.15 24.851,-42.798 21.523,-59.326 99.601,-167.497 9.629,-13.34 44.051,48.181 56.998,37.499 89.028,-73.457 177.79,-98.307 257.986,-100.496 133.647,-3.648 298.01302,56.623 385.48202,196.491 z"
     id="path155"
     inkscape:connector-curvature="0"
     style="fill:#747464;stroke:#231f20" /><path
     d="m 460.66488,258.0105 4.123,1140.2551 71.929,-3.465 c 0,0 94.519,133.604 310.572,136.947 183.06602,2.832 340.43902,-144.217 369.69902,-281.56 29.264,-137.344 85.875,-736.1831 -51.426,-928.5081 -137.299,-192.323 -400.45202,-254.190006 -607.41102,-43.438 l -0.709,-25.99 -96.777,5.759 z"
     id="path157"
     inkscape:connector-curvature="0"
     style="fill:#9e776a;stroke:#231f20" /><path
     d="m 538.10788,1237.0086 -2.639,-756.2851 c 0,0 52.891,-151.515 138.802,-192.878 l 169.104,120.514 166.88702,-126.686 c 0,0 123.521,77.464 139.795,173.267 35.096,206.608 -0.031,768.3651 -0.031,768.3651 0,0 -30.945,215.443 -273.02902,223.555 -235.114,7.878 -303.769,-132.773 -338.889,-209.852 z"
     id="path159"
     inkscape:connector-curvature="0"
     style="fill:#747464;stroke:#231f20" /><path
     d="m 60.037879,1228.6086 3,-813.0821 135.014001,24.003 c 0,0 144.015,-303.031 192.02,-330.033 l 90.009,87.009 c 0,0 353.174,-277.786006 695.20802,7.243 l 66.868,-94.252 c 0,0 231.35,108.738 209.132,706.252 0,0 9.333,212.6421 -17.112,361.8551 -26.657,150.408 -15.001,180.019 -207.021,408.041 l -81.009,-93.01 c 0,0 -322.85802,246.113 -630.85802,-20.887 l -125.217,113.896 c 0,0 -189.02,-264.026 -207.021,-360.036 l -123.013001,3.001 z"
     id="path161"
     inkscape:connector-curvature="0"
     style="fill:none;stroke:#231f20;stroke-width:20" /><polyline
     points="151.289,385.218 212.289,398.718 207.289,1159.718   127.289,1161.052 "
     id="polyline163"
     style="fill:none;stroke:#231f20;stroke-width:10"
     transform="translate(49.999879,60.029494)" /><path
     d="m 396.39688,1335.3146 17.999,-25.499 20.999,-10.5 c 0,0 -135.332,-448.7471 5.682,-943.7961 l -30.003,-15.001 93.317,-161.646 53.997,32.999 c 0,0 283.485,-257.985006 602.96902,49.499 0,0 131.802,100.152 137.803,541.196 0,0 36.007,486.0451 -171.015,645.0621 0,0 -288.85702,248.12 -572.85702,0.12 l -52,40 -106.891,-152.434 z"
     id="path165"
     inkscape:connector-curvature="0"
     style="fill:none;stroke:#231f20;stroke-width:10" /><rect
     x="81.124931"
     y="-891.39648"
     transform="matrix(0.02310077,0.99973314,-0.99973314,0.02310077,0,0)"
     width="23.450222"
     height="101.33164"
     id="rect167"
     style="fill:#afaeb8;stroke:#231f20;stroke-width:0.99996686" /><rect
     x="863.28888"
     y="1255.7474"
     width="48"
     height="204"
     id="rect169"
     style="fill:#9e776a;stroke:#231f20" /></svg>